<svg xmlns="http://www.w3.org/2000/svg" width="33.955" height="33.955" viewBox="0 0 33.955 33.955">
  <defs>
    <style>
      .cls-1 {
        fill: #fff;
      }

      .cls-2 {
        fill: #8dc351;
      }
    </style>
  </defs>
  <g id="Bch_Icon" transform="translate(0 0)">
    <path id="Ellipse" class="cls-1" d="M16.978,0A16.978,16.978,0,1,1,0,16.978,16.978,16.978,0,0,1,16.978,0Z"/>
    <path id="Path" class="cls-2" d="M22.015,10.81C21.192,8.718,19.127,8.529,16.723,9l-.856-2.985-1.817.521.834,2.907c-.477.136-.963.286-1.446.435L12.6,6.948l-1.816.52.854,2.985c-.39.121-.775.24-1.151.348l0-.011-2.506.718.557,1.942s1.335-.412,1.319-.38a.975.975,0,0,1,1.273.5l.976,3.4a1.616,1.616,0,0,1,.2-.042l-.192.055,1.366,4.764a.668.668,0,0,1-.509.8c.029.014-1.322.378-1.322.378l.262,2.274,2.364-.679c.44-.124.875-.241,1.3-.361l.867,3.019,1.814-.52-.856-2.987q.73-.194,1.456-.4l.851,2.974,1.818-.521L20.653,22.7c3-1.052,4.921-2.434,4.364-5.38-.448-2.37-1.829-3.09-3.683-3.009a2.922,2.922,0,0,0,.681-3.5Zm-.69,7.184c.647,2.257-3.289,3.108-4.52,3.462l-1.147-4c1.231-.353,4.991-1.814,5.666.539Zm-2.464-5.4c.588,2.053-2.7,2.738-3.729,3.032L14.093,12c1.025-.294,4.154-1.544,4.769.6Z" transform="translate(0.487 0.367)"/>
  </g>
</svg>
