<svg xmlns="http://www.w3.org/2000/svg" width="39" height="39" viewBox="0 0 39 39">
  <g id="Icon_Bch" transform="translate(2 2)">
    <circle id="Ellipse" cx="19.5" cy="19.5" r="19.5" transform="translate(-2 -2)" fill="#fff" opacity="0.2"/>
    <circle id="Ellipse-2" data-name="Ellipse" cx="17.5" cy="17.5" r="17.5" fill="#8dc351"/>
    <path id="Path" d="M22.447,10.958C21.6,8.8,19.47,8.606,16.992,9.088l-.883-3.077-1.872.537.86,3c-.492.14-.993.3-1.491.448l-.864-3.017-1.871.536.88,3.077c-.4.125-.8.247-1.187.359l0-.011-2.583.74.574,2s1.376-.424,1.36-.392a1,1,0,0,1,1.312.512l1.006,3.5a1.665,1.665,0,0,1,.2-.044l-.2.057,1.408,4.911a.688.688,0,0,1-.525.823c.03.014-1.363.389-1.363.389l.27,2.344,2.437-.7c.454-.128.9-.248,1.341-.372l.894,3.112,1.87-.536-.883-3.079q.753-.2,1.5-.416l.877,3.066,1.874-.537-.89-3.106c3.1-1.084,5.073-2.509,4.5-5.545-.462-2.443-1.886-3.185-3.8-3.1a3.012,3.012,0,0,0,.7-3.609Zm-.711,7.4c.667,2.326-3.391,3.2-4.659,3.569l-1.182-4.123c1.269-.364,5.145-1.87,5.841.556ZM19.2,12.8c.606,2.116-2.786,2.822-3.843,3.125l-1.072-3.74c1.057-.3,4.282-1.591,4.915.616Z" transform="translate(0.748 0.563)" fill="#fff"/>
  </g>
</svg>
