<svg xmlns="http://www.w3.org/2000/svg" width="39" height="39" viewBox="0 0 39 39">
    <defs>
        <style>
            .cls-1,.cls-3{fill:#fff}.cls-1{opacity:.2}.cls-2{fill:#f7931a}
        </style>
    </defs>
    <g id="Btc_Icon" transform="translate(-249 -1229)">
        <circle id="Ellipse" cx="19.5" cy="19.5" r="19.5" class="cls-1" transform="translate(249 1229)"/>
        <circle id="Ellipse-2" cx="17.5" cy="17.5" r="17.5" class="cls-2" data-name="Ellipse" transform="translate(251 1231)"/>
        <path id="Path" d="M24.6 14.772c.343-2.292-1.4-3.525-3.79-4.348l.774-3.106-1.89-.47-.755 3.024c-.5-.125-1.006-.241-1.515-.357l.76-3.044L16.293 6l-.774 3.105c-.411-.094-.816-.186-1.207-.284v-.01l-2.606-.651-.5 2.019s1.4.322 1.374.341a1.006 1.006 0 0 1 .88 1.1l-.882 3.538a1.681 1.681 0 0 1 .2.062l-.2-.049-1.236 4.957a.689.689 0 0 1-.867.448c.02.027-1.374-.342-1.374-.342L8.157 22.4l2.461.614c.457.115.906.235 1.346.348l-.782 3.138 1.889.47.774-3.106c.516.139 1.017.268 1.507.39l-.772 3.093 1.89.47.782-3.135c3.224.61 5.648.364 6.669-2.552.822-2.347-.04-3.7-1.737-4.585a3.014 3.014 0 0 0 2.416-2.773zm-4.32 6.057c-.583 2.348-4.537 1.078-5.819.76l1.039-4.162c1.28.321 5.389.954 4.778 3.402zm.585-6.091c-.533 2.136-3.823 1.05-4.889.784l.941-3.773c1.066.266 4.5.761 3.948 2.989z" class="cls-3" transform="translate(251.765 1231.563)"/>
    </g>
</svg>
