<svg xmlns="http://www.w3.org/2000/svg" width="33.955" height="33.955" viewBox="0 0 33.955 33.955">
  <defs>
    <style>
      .cls-1 {
        fill: #fff;
      }

      .cls-2 {
        fill: #14b6e7;
        fill-rule: evenodd;
      }
    </style>
  </defs>
  <g id="Xlm_Icon" transform="translate(0 0)">
    <circle id="Bg" class="cls-1" cx="16.978" cy="16.978" r="16.978"/>
    <path id="Path" class="cls-2" d="M13.19,13.978q1.1-1.953,2.239-3.879c2.232-3.749,8.2-4.138,8.521-3.9l0,.006,0,0c.325.233,1.974,6.1-.73,9.51q-1.38,1.737-2.8,3.439c.987,1.551,1.66,4.171-.663,7.864-.11.174-.318.316-.334-.045A6.324,6.324,0,0,0,17.4,22.7l-.106.125c-.515.62-.943.536-1.651.027l-.056-.041a2.8,2.8,0,0,1-.4.869c-.021.03-.045.057-.067.087-1.57,2.21-3.785,3.3-4.992,2.426s-.955-3.372.55-5.63c.02-.032.037-.064.058-.1A2.756,2.756,0,0,1,11.4,19.8h0c-.708-.51-.928-.895-.532-1.6l.056-.1A6.189,6.189,0,0,0,6.3,17.646c-.345.109-.282-.141-.155-.308,2.623-3.42,5.252-3.737,7.045-3.359Zm-1.11,6.31a1.934,1.934,0,0,0-.27.308c-.015.021-.027.042-.04.064-1.061,1.555-1.247,3.269-.405,3.862s2.392-.161,3.5-1.683c.016-.021.033-.039.048-.06a1.912,1.912,0,0,0,.184-.322L13.52,21.324l-1.439-1.036Zm5.233-9.306A2.48,2.48,0,0,0,17.9,14.4a2.382,2.382,0,0,0,3.357-.592,2.479,2.479,0,0,0-.584-3.417,2.382,2.382,0,0,0-3.356.593Z" transform="translate(0.369 0.375)"/>
  </g>
</svg>
