<svg xmlns="http://www.w3.org/2000/svg" width="39" height="39" viewBox="0 0 39 39">
    <defs>
        <style>
            .cls-1,.cls-3{fill:#fff}.cls-1{opacity:.2}.cls-2{fill:#0080be}
        </style>
    </defs>
    <g id="Icon_Xrp" transform="translate(-348 -264)">
        <circle id="Ellipse" cx="19.5" cy="19.5" r="19.5" class="cls-1" transform="translate(348 264)"/>
        <circle id="Path" cx="17.5" cy="17.5" r="17.5" class="cls-2" transform="translate(350 266)"/>
        <path id="Symbol" d="M0 17.324c.237-.247.486-.481.722-.729.486-.454.935-.942 1.42-1.394 1.239-1.244 2.494-2.47 3.738-3.71.25-.233.481-.488.739-.713a5.878 5.878 0 0 1 2.724-1.34 7.954 7.954 0 0 1 .984-.117 3.142 3.142 0 0 1 .549.019 5.845 5.845 0 0 1 3.771 1.684c.324.324.654.641.976.967.306.318.634.611.939.927.336.344.689.671 1.025 1.014.778.781 1.569 1.55 2.346 2.333.365.34.713.7 1.066 1.056h-3.058q-1.167-1.149-2.325-2.312c-.42-.374-.792-.8-1.21-1.179-.33-.332-.659-.662-.993-.99a4.559 4.559 0 0 0-.907-.778 3.732 3.732 0 0 0-4.557.418c-.454.454-.907.9-1.357 1.352-.417.382-.793.8-1.21 1.185q-1.155 1.159-2.324 2.307zM7.407 7.018a6.116 6.116 0 0 1-1.263-1.037c-.417-.4-.814-.827-1.24-1.22-.309-.3-.6-.618-.92-.911-.34-.341-.678-.686-1.028-1.019C2.009 1.884 1.054.948.1 0h3.07c1.081 1.088 2.182 2.153 3.264 3.241.469.443.916.908 1.376 1.361a3.75 3.75 0 0 0 4.19.829 3.871 3.871 0 0 0 1.128-.76c.215-.234.453-.448.673-.678.249-.236.479-.492.734-.72.355-.349.7-.712 1.062-1.05.731-.74 1.48-1.463 2.214-2.2L17.844 0h3.047c-.361.354-.709.72-1.078 1.064-.876.882-1.766 1.75-2.642 2.629-.419.389-.807.813-1.224 1.2q-.7.7-1.408 1.4a5.81 5.81 0 0 1-1.548 1.044 5.859 5.859 0 0 1-2.487.545 5.884 5.884 0 0 1-3.097-.864z" class="cls-3" transform="translate(356.916 274.7)"/>
    </g>
</svg>
